<?xml version="1.0" encoding="UTF-8"?>
<svg version="1.1" xmlns="http://www.w3.org/2000/svg" width="90" height="16">
<path d="M0 0 C2.475 0.495 2.475 0.495 5 1 C5.66 1.99 6.32 2.98 7 4 C7.4125 3.34 7.825 2.68 8.25 2 C8.8275 1.34 9.405 0.68 10 0 C11.32 0 12.64 0 14 0 C14 4.62 14 9.24 14 14 C12.68 14 11.36 14 10 14 C9.67 13.01 9.34 12.02 9 11 C6.98491642 10.26676204 6.98491642 10.26676204 5 10 C4.67 11.32 4.34 12.64 4 14 C2.68 14 1.36 14 0 14 C0 9.38 0 4.76 0 0 Z " fill="#37D8B9" transform="translate(61,1)"/>
<path d="M0 0 C2.9375 0.75 2.9375 0.75 4.9375 2.75 C4.7725 3.36875 4.6075 3.9875 4.4375 4.625 C3.68035202 6.79610623 3.68035202 6.79610623 5 8.75 C5.9375 10.75 5.9375 10.75 5.5 12.9375 C3.9375 14.75 3.9375 14.75 0.5625 15.625 C-2.87520766 15.74354164 -4.28546649 15.63838279 -7.0625 13.75 C-7.0625 12.43 -7.0625 11.11 -7.0625 9.75 C-6.4025 9.42 -5.7425 9.09 -5.0625 8.75 C-5.7225 8.09 -6.3825 7.43 -7.0625 6.75 C-6.875 4.25 -6.875 4.25 -6.0625 1.75 C-3.0625 -0.25 -3.0625 -0.25 0 0 Z M-2.0625 3.75 C-2.0625 4.41 -2.0625 5.07 -2.0625 5.75 C-1.0725 5.42 -0.0825 5.09 0.9375 4.75 C-0.0525 4.42 -1.0425 4.09 -2.0625 3.75 Z M-3.0625 9.75 C-2.7325 10.41 -2.4025 11.07 -2.0625 11.75 C-1.0725 11.75 -0.0825 11.75 0.9375 11.75 C0.9375 11.09 0.9375 10.43 0.9375 9.75 C-0.3825 9.75 -1.7025 9.75 -3.0625 9.75 Z " fill="#38D8B8" transform="translate(84.0625,0.25)"/>
<path d="M0 0 C2.9375 0.75 2.9375 0.75 4.9375 2.75 C4.60416667 4.08333333 4.27083333 5.41666667 3.9375 6.75 C4.5975 7.41 5.2575 8.07 5.9375 8.75 C5.8125 11.25 5.8125 11.25 4.9375 13.75 C2.40692015 15.81195395 1.08217202 15.76157376 -2.1875 15.5 C-5.0625 14.75 -5.0625 14.75 -7.0625 12.75 C-7.0625 11.76 -7.0625 10.77 -7.0625 9.75 C-6.4025 9.42 -5.7425 9.09 -5.0625 8.75 C-5.7225 8.09 -6.3825 7.43 -7.0625 6.75 C-6.875 4.25 -6.875 4.25 -6.0625 1.75 C-3.0625 -0.25 -3.0625 -0.25 0 0 Z M-2.0625 3.75 C-2.0625 4.41 -2.0625 5.07 -2.0625 5.75 C-1.0725 5.42 -0.0825 5.09 0.9375 4.75 C-0.0525 4.42 -1.0425 4.09 -2.0625 3.75 Z M-3.0625 9.75 C-2.7325 10.41 -2.4025 11.07 -2.0625 11.75 C-1.0725 11.75 -0.0825 11.75 0.9375 11.75 C0.9375 11.09 0.9375 10.43 0.9375 9.75 C-0.3825 9.75 -1.7025 9.75 -3.0625 9.75 Z " fill="#38D8B8" transform="translate(54.0625,0.25)"/>
<path d="M0 0 C1.32 0.33 2.64 0.66 4 1 C4 5.62 4 10.24 4 15 C2.576875 15.226875 1.15375 15.45375 -0.3125 15.6875 C-1.11300781 15.81511719 -1.91351563 15.94273438 -2.73828125 16.07421875 C-5 16 -5 16 -6.7734375 14.70703125 C-8.63213241 12.12024884 -8.32260928 10.09704907 -8 7 C-7.34 6.01 -6.68 5.02 -6 4 C-3.375 3.8125 -3.375 3.8125 -1 4 C-0.67 2.68 -0.34 1.36 0 0 Z M-3 8 C-3 9.32 -3 10.64 -3 12 C-2.34 12 -1.68 12 -1 12 C-1 10.68 -1 9.36 -1 8 C-1.66 8 -2.32 8 -3 8 Z " fill="#37D8B9" transform="translate(38,0)"/>
<path d="M0 0 C1.60875 -0.020625 3.2175 -0.04125 4.875 -0.0625 C5.77992188 -0.07410156 6.68484375 -0.08570312 7.6171875 -0.09765625 C10 0 10 0 12 1 C12 3.31 12 5.62 12 8 C9.35261084 9.4606285 8.10551666 10 5 10 C5 11.32 5 12.64 5 14 C3.35 14 1.7 14 0 14 C0 9.38 0 4.76 0 0 Z M4 3 C4 3.99 4 4.98 4 6 C5.32 5.67 6.64 5.34 8 5 C7.67 4.34 7.34 3.68 7 3 C6.01 3 5.02 3 4 3 Z " fill="#38D8B9" transform="translate(0,1)"/>
<path d="M0 0 C3.0625 0.125 3.0625 0.125 5.0625 1.125 C5.0625 4.425 5.0625 7.725 5.0625 11.125 C-0.31055699 12.09391192 -0.31055699 12.09391192 -2.9375 12.125 C-4.9375 10.6875 -4.9375 10.6875 -5.9375 9.125 C-5.6075 8.5475 -5.2775 7.97 -4.9375 7.375 C-3.66674102 4.92616138 -3.66674102 4.92616138 -3.9375 1.125 C-2.9375 0.125 -2.9375 0.125 0 0 Z " fill="#38D8B9" transform="translate(17.9375,3.875)"/>
<path d="M0 0 C1.32 0 2.64 0 4 0 C4 4.95 4 9.9 4 15 C2.68 15 1.36 15 0 15 C0 10.05 0 5.1 0 0 Z " fill="#38D8B9" transform="translate(25,0)"/>
</svg>
